<svg width="154" height="27" viewBox="0 0 154 27" fill="none" xmlns="http://www.w3.org/2000/svg">
<path d="M28.1233 5.94531H33.4361L38.8425 17.6006V5.94531H42.751V22.0006H37.4382L32.0318 10.3453V22.0006H28.1233V5.94531ZM50.5307 22.4453C49.1888 22.4453 48.0186 22.18 47.02 21.6495C46.037 21.1034 45.2803 20.3467 44.7498 19.3793C44.2193 18.3963 43.9541 17.2573 43.9541 15.9623C43.9541 14.6829 44.2193 13.5517 44.7498 12.5687C45.2803 11.5857 46.0292 10.829 46.9966 10.2985C47.9796 9.7524 49.1186 9.47935 50.4136 9.47935C52.3484 9.47935 53.8385 10.0566 54.8839 11.2112C55.9449 12.3658 56.4753 13.9807 56.4753 16.0559C55.4456 15.8843 54.2051 15.7751 52.7541 15.7283C52.7541 14.6517 52.5746 13.8247 52.2158 13.2474C51.8725 12.6701 51.2484 12.3815 50.3434 12.3815C49.3761 12.3815 48.6973 12.6545 48.3073 13.2006C47.9328 13.7467 47.7456 14.6283 47.7456 15.8453C47.7456 16.7346 47.8314 17.4446 48.003 17.9751C48.1746 18.49 48.4555 18.8644 48.8456 19.0985C49.2512 19.3325 49.8051 19.4495 50.5073 19.4495C51.1626 19.4495 51.6385 19.3325 51.9349 19.0985C52.247 18.8644 52.4888 18.4666 52.6605 17.9049L56.3349 18.9346C55.82 20.1673 55.1101 21.0644 54.2051 21.6261C53.3158 22.1722 52.0909 22.4453 50.5307 22.4453ZM45.8966 14.9325H56.1477L56.4753 15.9857V17.3432H45.8966V14.9325ZM64.8127 22.4453C63.7361 22.4453 62.8858 22.1566 62.2617 21.5793C61.6376 20.9864 61.2007 20.2219 60.951 19.2857C60.7014 18.3495 60.5844 17.3041 60.6 16.1495C60.6 14.8077 60.7482 13.6453 61.0446 12.6623C61.3411 11.6637 61.8014 10.8836 62.4255 10.3219C63.0496 9.76021 63.8454 9.47935 64.8127 9.47935C66.061 9.47935 67.1688 9.7524 68.1361 10.2985C69.1035 10.829 69.8602 11.5857 70.4063 12.5687C70.9524 13.5517 71.2255 14.6829 71.2255 15.9623C71.2255 17.2417 70.9524 18.3729 70.4063 19.3559C69.8602 20.3389 69.1035 21.1034 68.1361 21.6495C67.1688 22.18 66.061 22.4453 64.8127 22.4453ZM57.6978 9.92404H61.5361V12.0538L60.6468 16.0793L61.5361 19.9644V25.7453H57.6978V9.92404ZM64.5787 19.707C65.4368 19.707 66.1312 19.3793 66.6617 18.724C67.2078 18.0531 67.4808 17.1325 67.4808 15.9623C67.4808 14.8077 67.2078 13.9105 66.6617 13.2708C66.1312 12.6155 65.4368 12.2878 64.5787 12.2878C63.5645 12.2878 62.7376 12.6155 62.0978 13.2708C61.4737 13.9105 61.1617 14.8077 61.1617 15.9623C61.1617 16.7268 61.3255 17.3978 61.6532 17.9751C61.9964 18.5368 62.4333 18.9658 62.9638 19.2623C63.4943 19.5588 64.0326 19.707 64.5787 19.707ZM80.6804 14.09C80.6804 13.6063 80.4542 13.2318 80.0017 12.9666C79.5648 12.7013 79.0109 12.5687 78.34 12.5687C77.5755 12.5687 77.0138 12.6623 76.6549 12.8495C76.296 13.0368 76.101 13.341 76.0698 13.7623L72.3251 13.1538C72.4967 12.4049 72.8868 11.7573 73.4953 11.2112C74.1038 10.6495 74.8294 10.2205 75.6719 9.92404C76.5145 9.62758 77.357 9.47935 78.1996 9.47935C79.1201 9.47935 80.0563 9.61978 81.0081 9.90063C81.9599 10.1815 82.7634 10.6339 83.4187 11.258C84.074 11.8822 84.4017 12.6701 84.4017 13.6219V22.0006H80.6804V14.09ZM76.7485 22.4453C75.3131 22.4453 74.174 22.1566 73.3315 21.5793C72.4889 20.9864 72.0677 20.0034 72.0677 18.6304C72.0677 16.1183 73.6436 14.8077 76.7953 14.6985L80.9613 14.5112V16.5006L79.0421 16.6176C78.1996 16.68 77.5209 16.8049 77.006 16.9921C76.5067 17.1637 76.1478 17.3822 75.9294 17.6474C75.7109 17.9127 75.6095 18.2169 75.6251 18.5602C75.6251 19.0751 75.7577 19.4417 76.023 19.6602C76.3038 19.8786 76.5223 19.9956 76.6783 20.0112C76.8499 20.0268 77.084 20.0346 77.3804 20.0346C78.535 20.0346 79.3776 19.7382 79.9081 19.1453C80.4386 18.5368 80.696 17.5772 80.6804 16.2666H82.0145C82.0145 17.5304 81.796 18.6304 81.3592 19.5666C80.9223 20.5027 80.306 21.2205 79.5102 21.7197C78.7145 22.2034 77.7939 22.4453 76.7485 22.4453ZM99.6468 9.92404H103.626L100.724 22.0006H97.4468L99.6468 9.92404ZM84.7617 9.92404H88.7404L90.9404 22.0006H87.6638L84.7617 9.92404ZM92.2277 9.92404H95.2L92.7192 22.0006H89.6532L92.2277 9.92404ZM93.3277 9.92404H96.3234L98.8979 22.0006H95.8085L93.3277 9.92404ZM112.232 14.09C112.232 13.6063 112.005 13.2318 111.553 12.9666C111.116 12.7013 110.562 12.5687 109.891 12.5687C109.127 12.5687 108.565 12.6623 108.206 12.8495C107.847 13.0368 107.652 13.341 107.621 13.7623L103.876 13.1538C104.048 12.4049 104.438 11.7573 105.047 11.2112C105.655 10.6495 106.381 10.2205 107.223 9.92404C108.066 9.62758 108.908 9.47935 109.751 9.47935C110.671 9.47935 111.608 9.61978 112.559 9.90063C113.511 10.1815 114.315 10.6339 114.97 11.258C115.625 11.8822 115.953 12.6701 115.953 13.6219V22.0006H112.232V14.09ZM108.3 22.4453C106.864 22.4453 105.725 22.1566 104.883 21.5793C104.04 20.9864 103.619 20.0034 103.619 18.6304C103.619 16.1183 105.195 14.8077 108.347 14.6985L112.512 14.5112V16.5006L110.593 16.6176C109.751 16.68 109.072 16.8049 108.557 16.9921C108.058 17.1637 107.699 17.3822 107.481 17.6474C107.262 17.9127 107.161 18.2169 107.176 18.5602C107.176 19.0751 107.309 19.4417 107.574 19.6602C107.855 19.8786 108.073 19.9956 108.229 20.0112C108.401 20.0268 108.635 20.0346 108.932 20.0346C110.086 20.0346 110.929 19.7382 111.459 19.1453C111.99 18.5368 112.247 17.5772 112.232 16.2666H113.566C113.566 17.5304 113.347 18.6304 112.91 19.5666C112.473 20.5027 111.857 21.2205 111.061 21.7197C110.266 22.2034 109.345 22.4453 108.3 22.4453ZM123.66 22.4453C122.631 22.4453 121.733 22.2815 120.969 21.9538C120.204 21.6261 119.611 21.1346 119.19 20.4793C118.769 19.8084 118.558 18.9893 118.558 18.0219V6.88148H122.326V18.1155C122.326 18.4588 122.381 18.7084 122.49 18.8644C122.615 19.0049 122.771 19.0907 122.958 19.1219C123.161 19.1375 123.504 19.1453 123.988 19.1453C124.253 19.1453 124.534 19.1141 124.831 19.0517V22.2815C124.472 22.3907 124.082 22.4453 123.66 22.4453ZM116.592 9.92404H124.877V13.4112H116.592V9.92404ZM132.484 22.4453C131.049 22.4453 129.816 22.18 128.787 21.6495C127.772 21.1034 127 20.3467 126.47 19.3793C125.939 18.3963 125.674 17.2573 125.674 15.9623C125.674 14.6673 125.939 13.5361 126.47 12.5687C127 11.5857 127.772 10.829 128.787 10.2985C129.816 9.7524 131.049 9.47935 132.484 9.47935C133.889 9.47935 135.106 9.80701 136.136 10.4623C137.165 11.102 137.93 11.968 138.429 13.0602L135.316 14.2304C135.02 13.6063 134.669 13.1304 134.263 12.8027C133.873 12.4595 133.319 12.2878 132.602 12.2878C131.463 12.2878 130.628 12.6155 130.097 13.2708C129.582 13.9105 129.325 14.7921 129.325 15.9155C129.325 17.0701 129.582 17.9751 130.097 18.6304C130.628 19.2857 131.463 19.6134 132.602 19.6134C133.272 19.6134 133.803 19.4573 134.193 19.1453C134.599 18.8176 134.958 18.3573 135.27 17.7644L138.359 19.0751C137.844 20.0893 137.072 20.9084 136.042 21.5325C135.028 22.141 133.842 22.4453 132.484 22.4453ZM139.547 5.94531H143.385V22.0006H139.547V5.94531ZM148.37 15.5878C148.37 14.9169 148.269 14.363 148.066 13.9261C147.863 13.4736 147.566 13.146 147.176 12.9432C146.802 12.7247 146.357 12.6155 145.842 12.6155C145.171 12.6155 144.586 12.8729 144.087 13.3878C143.588 13.8871 143.346 14.6751 143.361 15.7517H142.776C142.776 14.2694 142.956 13.068 143.315 12.1474C143.689 11.2112 144.196 10.5325 144.836 10.1112C145.476 9.68999 146.209 9.47935 147.036 9.47935C147.894 9.47935 148.713 9.68999 149.493 10.1112C150.273 10.5169 150.905 11.1332 151.389 11.9602C151.873 12.7871 152.115 13.8013 152.115 15.0027V22.0006H148.37V15.5878Z" fill="#313131"/>
<path d="M2 15C3.72 11.17 7.53 8.5 12 8.5C16.47 8.5 20.28 11.17 22 15C20.28 18.83 16.47 21.5 12 21.5C7.53 21.5 3.72 18.83 2 15Z" stroke="#313131" stroke-width="4" stroke-linecap="round" stroke-linejoin="round"/>
<path d="M12 18C13.6569 18 15 16.6569 15 15C15 13.3431 13.6569 12 12 12C10.3431 12 9 13.3431 9 15C9 16.6569 10.3431 18 12 18Z" fill="#313131"/>
</svg>
